<?xml version="1.0" encoding="utf-8"?>
<!-- Svg Vector Icons : http://www.onlinewebfonts.com/icon -->
<!DOCTYPE svg PUBLIC "-//W3C//DTD SVG 1.1//EN" "http://www.w3.org/Graphics/SVG/1.1/DTD/svg11.dtd">
<svg version="1.1" xmlns="http://www.w3.org/2000/svg" xmlns:xlink="http://www.w3.org/1999/xlink" x="0px" y="0px" viewBox="0 0 1000 1000" enable-background="new 0 0 1000 1000" xml:space="preserve">
<metadata> Svg Vector Icons : http://www.onlinewebfonts.com/icon </metadata>
<g><path d="M368.9,787.8l-49.6,49.3c-43,42.7-112.9,42.7-155.9,0c-20.6-20.5-32-47.8-32-76.7c0-29,11.4-56.2,32-76.7L346,502.4c37.8-37.6,109-92.8,160.9-41.4c23.8,23.7,62.2,23.5,85.9-0.3c23.6-23.8,23.5-62.3-0.3-85.9c-88.2-87.6-218.5-71.4-331.9,41.3L77.9,597.4C34.1,640.9,10,698.8,10,760.4c0,61.6,24.1,119.5,67.9,163c45.1,44.8,104.2,67.1,163.4,67.1c59.2,0,118.4-22.4,163.5-67.1l49.6-49.3c23.8-23.6,23.9-62.1,0.3-85.9C431.2,764.3,392.7,764.2,368.9,787.8z M922.1,83.6C827.4-10.4,695-15.5,607.3,71.5L545.5,133c-23.8,23.7-24,62.1-0.3,85.9c23.6,23.8,62.1,24,85.9,0.3l61.8-61.4c45.4-45.1,104.9-26.4,143.6,12.1c20.7,20.5,32,47.8,32,76.7c0,29-11.4,56.2-32,76.7L641.8,516.8c-89,88.4-130.8,46.9-148.6,29.2c-23.8-23.6-62.2-23.5-85.9,0.3c-23.6,23.8-23.5,62.3,0.3,85.9C448.5,672.9,495.1,693,544,693c59.9,0,123.1-30.2,183.3-90l194.7-193.4c43.8-43.5,67.9-101.4,67.9-163C990,185.1,965.9,127.2,922.1,83.6z"/></g>
</svg>